<svg width="24" height="24" viewBox="0 0 24 24" fill="none" xmlns="http://www.w3.org/2000/svg">
<path fill-rule="evenodd" clip-rule="evenodd" d="M8.00476 5.93532C8.10696 5.84674 8.24664 5.78769 8.38632 5.77292C8.47945 5.76384 8.5544 5.76838 8.64184 5.78996C8.80878 5.83197 8.92007 5.91033 9.07224 6.0909C9.32662 6.39411 9.53898 6.57808 10.5406 7.36734C11.2606 7.93515 11.7205 8.33943 12.043 8.69034L12.1873 8.84706L12.235 8.80617C12.6642 8.42915 12.8198 8.30196 13.5103 7.75913C14.228 7.19586 14.5107 6.94375 14.7526 6.65189C14.8673 6.51335 14.9548 6.45202 15.1047 6.40206C15.3329 6.32597 15.6078 6.36799 15.7895 6.50653C15.8292 6.5372 15.8973 6.6042 15.9416 6.65757C16.1937 6.95965 16.4799 7.21062 17.3373 7.88405C18.0618 8.45186 18.4105 8.75166 18.775 9.11733C19.244 9.58975 19.5858 10.0588 19.7778 10.496L19.8255 10.6039L20.0605 10.6538C21.5936 10.9809 22.7145 11.4192 23.2039 11.8837C23.6014 12.2619 23.598 12.6593 23.1949 13.0341C22.3488 13.82 19.8062 14.4729 16.3947 14.7818C14.8378 14.9238 13.4012 14.9783 11.6081 14.9669C10.6542 14.9601 10.41 14.9544 9.62075 14.9192C5.9595 14.7534 2.81723 14.1834 1.38293 13.4248C0.539164 12.9773 0.297277 12.4901 0.681117 12.012C1.0502 11.5532 2.0132 11.1206 3.43728 10.7731C3.60298 10.7333 3.75281 10.6959 3.77112 10.6913L3.77115 10.6913C3.80408 10.6834 3.80635 10.6788 3.82452 10.5755C3.94831 9.88388 4.34123 9.22635 5.0544 8.51432C5.3985 8.17136 5.72215 7.89427 6.441 7.32986C7.33928 6.6235 7.62659 6.37253 7.85712 6.09203C7.90482 6.03525 7.97069 5.96371 8.00476 5.93532ZM9.79677 7.87269C9.12221 7.34349 8.78834 7.05504 8.57257 6.81656C8.51919 6.75751 8.47263 6.70754 8.46923 6.7064C8.46582 6.70527 8.39655 6.77454 8.31478 6.85858C8.06154 7.12318 7.78672 7.35825 7.136 7.86928C6.50232 8.36669 6.24 8.58018 6.01514 8.78005C5.20885 9.50117 4.81365 10.0633 4.67284 10.6902C4.64899 10.7969 4.64672 10.8355 4.64672 11.0865C4.64785 11.3977 4.66034 11.5124 4.72621 11.7849C4.81819 12.1699 4.97037 12.4856 5.2009 12.7729C5.30083 12.8967 5.49843 13.0863 5.6313 13.1863L5.74146 13.2692L5.93224 13.2964C7.27568 13.4918 8.86897 13.6224 10.4384 13.6644C11.1107 13.6814 11.2492 13.6825 11.2413 13.67C11.2393 13.6661 11.2291 13.6496 11.2153 13.6272L11.1822 13.5735C10.9574 13.2124 10.8018 12.7922 10.7234 12.3346C10.6803 12.087 10.6667 11.9121 10.6667 11.6316C10.6667 11.3159 10.6939 11.1308 10.787 10.8196C10.9006 10.4392 11.1413 10.0133 11.4752 9.59884L11.5899 9.45802L11.532 9.39443C11.1016 8.92768 10.7575 8.62674 9.79677 7.87269ZM16.6843 8.45754C16.313 8.16795 16.0575 7.96013 15.8667 7.79433C15.7917 7.7296 15.643 7.58765 15.5362 7.47976L15.342 7.28444L15.2194 7.4139C14.965 7.68531 14.6788 7.93174 13.9395 8.51205C13.0571 9.20591 12.721 9.49663 12.3701 9.87025C11.8863 10.387 11.6092 10.89 11.5354 11.3897C11.4991 11.6316 11.5354 12.104 11.6149 12.4163C11.6955 12.7377 11.8568 13.0648 12.0646 13.3328C12.1577 13.452 12.3814 13.6746 12.4189 13.6837C12.4507 13.6916 13.5489 13.6689 13.9645 13.653C15.6838 13.5826 17.1761 13.4441 18.5002 13.2306L18.7262 13.1931L18.7739 13.1193C18.9295 12.8797 19.0544 12.5549 19.1146 12.2369C19.1702 11.9428 19.1827 11.5498 19.143 11.3193C19.0487 10.7663 18.6512 10.1553 17.9869 9.53751C17.653 9.22862 17.3691 8.99241 16.6843 8.45754ZM21.6197 12.4299C21.4528 12.3561 20.9111 12.1869 20.5284 12.087C20.4319 12.062 20.2774 12.0234 20.1855 12.003L20.1854 12.003C20.055 11.9726 20.0272 11.9661 20.0179 11.9763C20.0154 11.9791 20.0143 11.9831 20.0128 11.9882C20.0094 12.0018 20.006 12.0268 20.006 12.0461C20.006 12.1108 19.9492 12.4402 19.9152 12.581C19.8959 12.6582 19.8607 12.7831 19.8368 12.8581C19.813 12.933 19.7937 12.9944 19.7959 12.9944C19.8096 12.9944 20.2138 12.9001 20.408 12.8513C20.8566 12.7388 21.2654 12.6151 21.5698 12.4981L21.6799 12.4561L21.6197 12.4299ZM4.27764 12.9285C4.13114 12.6911 4.00395 12.3879 3.90856 12.0484C3.89834 12.0132 3.88698 11.9836 3.88244 11.9848C3.862 11.9871 3.34643 12.1211 3.21015 12.1585C2.91148 12.2426 2.41181 12.4084 2.33686 12.4493C2.31187 12.4629 2.71616 12.606 3.09659 12.7173C3.3998 12.8058 4.26288 13.0171 4.32193 13.0171C4.32761 13.0171 4.3083 12.9773 4.27764 12.9285ZM7.49407 8.00896C7.57583 7.84543 7.63375 7.76594 7.6894 7.74096C7.80637 7.69099 7.93923 7.75685 7.96649 7.87837C7.98012 7.9431 7.96763 7.98625 7.90289 8.09186C7.83249 8.20656 7.79955 8.28151 7.74845 8.43823C7.69735 8.59722 7.6735 8.72668 7.6735 8.84819C7.6735 8.93336 7.67804 8.9538 7.70757 9.01399C7.75753 9.11506 7.75186 9.19342 7.68713 9.26269C7.60309 9.35127 7.47476 9.34673 7.39073 9.25247C7.30669 9.15708 7.27035 9.02421 7.27149 8.82661C7.27376 8.58018 7.35212 8.29173 7.49407 8.00896ZM8.22425 7.74096C8.17656 7.76253 8.1334 7.81364 8.11637 7.86588C8.03915 8.1089 8.26854 8.8198 8.55472 9.22067C8.63194 9.32969 8.74437 9.44439 8.82386 9.49663C8.93402 9.56818 9.026 9.57045 9.10096 9.50458C9.2077 9.41146 9.19408 9.25134 9.0737 9.18093C8.94992 9.10938 8.86134 8.99241 8.73642 8.73917C8.58425 8.43142 8.50248 8.16795 8.50248 7.98398C8.50248 7.85338 8.48658 7.80909 8.42639 7.76253C8.3787 7.72619 8.27876 7.71484 8.22425 7.74096ZM8.77954 7.95559C8.76365 7.87383 8.80339 7.79433 8.88289 7.74664C8.95329 7.70348 9.08048 7.72733 9.12932 7.79433C9.14067 7.8091 9.17247 7.88178 9.19973 7.95559C9.34622 8.3417 9.51656 8.5711 9.87656 8.87091C9.95492 8.93564 10.0299 9.00718 10.0435 9.02989C10.1207 9.15368 10.0208 9.32629 9.87088 9.32629C9.81296 9.32629 9.76867 9.30358 9.67214 9.22408C9.29285 8.91179 9.10774 8.69488 8.94875 8.37804C8.88175 8.24745 8.79204 8.02032 8.77954 7.95559ZM14.5838 8.31786C14.5657 8.32467 14.5373 8.34057 14.5225 8.3542C14.4146 8.45186 14.242 8.84592 14.1807 9.13437C14.1216 9.41827 14.1466 9.66698 14.2511 9.8112C14.2977 9.87593 14.351 9.90546 14.4226 9.90546C14.485 9.90546 14.5248 9.88729 14.5691 9.84073C14.6327 9.77372 14.6395 9.69877 14.5906 9.60111C14.5486 9.51707 14.5418 9.46711 14.5566 9.34332C14.5816 9.11961 14.6701 8.86068 14.7871 8.66649C14.8416 8.57678 14.8507 8.55293 14.8507 8.50523C14.8507 8.39848 14.7746 8.31558 14.6713 8.30877C14.6417 8.3065 14.6031 8.30991 14.5838 8.31786ZM15.0471 8.36328C15.0664 8.34397 15.0959 8.32353 15.1118 8.31672C15.1879 8.28605 15.2776 8.3099 15.3356 8.37577C15.3764 8.42233 15.3901 8.4757 15.381 8.54838C15.3662 8.64832 15.4151 8.84478 15.515 9.09348C15.6569 9.44553 15.8057 9.68174 15.9295 9.74647C16.0624 9.81574 16.0953 9.96564 15.9999 10.069C15.8193 10.2609 15.4945 9.99744 15.2299 9.44553C15.1016 9.17638 15.013 8.89702 14.9869 8.67557C14.9676 8.51318 14.9847 8.42346 15.0471 8.36328ZM15.7762 8.32012C15.7273 8.34056 15.6706 8.40984 15.6615 8.45753C15.6512 8.51431 15.6592 8.55406 15.708 8.68466C15.8386 9.03897 16.0317 9.33537 16.2895 9.57726C16.4053 9.68628 16.6222 9.86571 16.6642 9.88728C16.8039 9.95769 16.9731 9.8305 16.9481 9.67265C16.9379 9.6136 16.9118 9.5818 16.771 9.46483C16.3826 9.14118 16.2259 8.92882 16.0726 8.51431C16.0487 8.45186 16.0158 8.38599 15.9999 8.36782C15.9431 8.30763 15.8511 8.28719 15.7762 8.32012ZM0.521347 19.8615C0.504312 19.8081 0.502041 19.5072 0.500906 16.4864C0.498634 13.5553 0.49977 13.1806 0.514533 13.2544C0.548602 13.4225 0.632638 13.5622 0.798439 13.7212C1.79325 14.6785 5.25576 15.4212 9.66084 15.6233C10.5001 15.6619 10.868 15.6687 12.0116 15.6687C13.1052 15.6687 13.4425 15.6619 14.2261 15.629C16.7982 15.5188 19.166 15.21 20.8479 14.7659C22.0868 14.4389 22.9476 14.038 23.302 13.6224C23.3803 13.5304 23.4632 13.3759 23.4802 13.2896C23.4827 13.2775 23.4852 13.2648 23.4876 13.2529C23.492 13.2314 23.4958 13.2125 23.4973 13.2044C23.4996 13.1919 23.5007 14.6762 23.4996 16.5034C23.4984 19.556 23.4961 19.8297 23.4791 19.8774C23.4076 20.0772 23.2724 20.2453 23.0442 20.4157C22.8761 20.5417 22.7205 20.6326 22.4764 20.7518C20.9455 21.4945 17.8339 22.0328 14.192 22.1872C12.3773 22.2633 10.4149 22.2406 8.65582 22.1248C5.05362 21.8851 2.16914 21.2606 1.03578 20.4724C0.756421 20.2782 0.589484 20.0795 0.521347 19.8615Z" fill="black"/>
</svg>
