<svg width="70" height="70" viewBox="0 0 70 70" fill="none" xmlns="http://www.w3.org/2000/svg">
<g filter="url(#filter0_d_74_525)">
<rect x="4" y="1" width="62" height="62" rx="31" fill="black" shape-rendering="crispEdges"/>
<path d="M43.2 19.4443C43.2 14.9189 39.5255 11.2443 35 11.2443C30.4746 11.2443 26.8 14.9189 26.8 19.4443C26.8 23.1576 29.3916 26.484 32.95 27.4123L33.6463 29.2689C31.7123 29.3849 28.4633 29.8491 28.4633 31.4736C28.4633 33.6783 34.3425 33.7557 35.0387 33.7557C35.735 33.7557 41.6142 33.6783 41.6142 31.4736C41.6142 29.8104 38.3265 29.3849 36.3925 29.2689L37.05 27.4509C40.6085 26.5226 43.2 23.1962 43.2 19.4443ZM37.6689 19.4443C37.6689 20.9142 36.4699 22.1132 35 22.1132C33.5302 22.1132 32.3312 20.9142 32.3312 19.4443C32.3312 17.9745 33.5302 16.7755 35 16.7755C36.4699 16.7755 37.6689 17.9745 37.6689 19.4443ZM40.2217 31.4736C39.835 31.8604 37.9397 32.4406 35 32.4406C32.0991 32.4406 30.2038 31.8604 29.7784 31.4736C30.1265 31.1255 31.7123 30.6226 34.1104 30.5453L34.5359 31.667C34.6133 31.8604 34.768 31.9764 35 31.9764C35.1934 31.9764 35.3868 31.8604 35.4642 31.667L35.851 30.5453C38.2878 30.6226 39.835 31.1255 40.2217 31.4736Z" fill="white"/>
<path d="M26.732 40.936L26.6 40.972H24.032V51.424H24.824V41.776H26.288C26.06 42.604 25.736 43.708 25.424 44.596C26.204 45.568 26.384 46.42 26.384 47.092C26.384 47.476 26.324 47.824 26.156 47.956C26.072 48.016 25.952 48.052 25.82 48.064C25.64 48.076 25.436 48.076 25.184 48.04C25.316 48.28 25.388 48.604 25.4 48.844C25.64 48.856 25.928 48.856 26.144 48.82C26.372 48.796 26.588 48.724 26.744 48.592C27.056 48.364 27.188 47.836 27.188 47.176C27.188 46.42 26.996 45.52 26.192 44.5C26.576 43.504 26.984 42.292 27.308 41.272L26.732 40.936ZM29.192 40.468C28.676 42.208 27.824 43.912 26.816 45.028C26.996 45.208 27.284 45.58 27.392 45.76C27.68 45.424 27.98 45.016 28.244 44.584V51.352H29.048V43.132C29.42 42.364 29.756 41.524 30.008 40.684L29.192 40.468ZM34.52 43.204H33.464V40.612H32.6V43.204H29.624V44.032H32.6V50.272C32.6 50.464 32.528 50.524 32.348 50.536C32.18 50.536 31.616 50.536 30.968 50.524C31.1 50.776 31.22 51.16 31.256 51.4C32.144 51.412 32.672 51.376 33.008 51.22C33.332 51.064 33.464 50.812 33.464 50.272V44.032H34.52V43.204ZM31.832 47.908C31.592 47.188 31.04 46.084 30.56 45.232L29.888 45.532C30.32 46.396 30.86 47.536 31.112 48.268L31.832 47.908ZM43.28 44.812V49.732H44.168V44.812H46.388V43.984H40.856V42.16C42.536 41.944 44.42 41.62 45.728 41.176L44.972 40.504C43.988 40.876 42.272 41.2 40.7 41.428L39.992 41.272V44.044C39.992 45.508 39.836 47.404 38.528 48.82C38.744 48.94 39.056 49.24 39.164 49.432C40.412 48.1 40.76 46.3 40.832 44.812H43.28ZM38.504 42.604C38.084 42.028 37.184 41.26 36.416 40.756L35.756 41.296C36.536 41.824 37.424 42.616 37.796 43.192L38.504 42.604ZM38.168 45.16H35.624V46H37.292V49.036C36.692 49.54 36.02 50.044 35.468 50.404L35.948 51.304C36.584 50.788 37.184 50.272 37.76 49.768C38.528 50.692 39.596 51.124 41.156 51.184C42.476 51.232 44.936 51.208 46.244 51.16C46.28 50.884 46.436 50.464 46.532 50.248C45.128 50.344 42.464 50.38 41.156 50.332C39.776 50.272 38.732 49.864 38.168 48.988V45.16Z" fill="white"/>
</g>
<defs>
<filter id="filter0_d_74_525" x="0" y="0" width="70" height="70" filterUnits="userSpaceOnUse" color-interpolation-filters="sRGB">
<feFlood flood-opacity="0" result="BackgroundImageFix"/>
<feColorMatrix in="SourceAlpha" type="matrix" values="0 0 0 0 0 0 0 0 0 0 0 0 0 0 0 0 0 0 127 0" result="hardAlpha"/>
<feOffset dy="3"/>
<feGaussianBlur stdDeviation="2"/>
<feComposite in2="hardAlpha" operator="out"/>
<feColorMatrix type="matrix" values="0 0 0 0 0 0 0 0 0 0 0 0 0 0 0 0 0 0 0.1 0"/>
<feBlend mode="normal" in2="BackgroundImageFix" result="effect1_dropShadow_74_525"/>
<feBlend mode="normal" in="SourceGraphic" in2="effect1_dropShadow_74_525" result="shape"/>
</filter>
</defs>
</svg>
