<svg width="24" height="24" viewBox="0 0 24 24" fill="none" xmlns="http://www.w3.org/2000/svg">
<path d="M20.2 8.94434C20.2 4.41886 16.5255 0.744335 12 0.744335C7.47458 0.744335 3.80005 4.41886 3.80005 8.94434C3.80005 12.6575 6.39156 15.984 9.95005 16.9123L10.6463 18.7689C8.71231 18.8849 5.46326 19.3491 5.46326 20.9736C5.46326 23.1783 11.3425 23.2557 12.0387 23.2557C12.735 23.2557 18.6142 23.1783 18.6142 20.9736C18.6142 19.3104 15.3265 18.8849 13.3925 18.7689L14.05 16.9509C17.6085 16.0226 20.2 12.6962 20.2 8.94434ZM14.6689 8.94434C14.6689 10.4141 13.4699 11.6132 12 11.6132C10.5302 11.6132 9.33118 10.4141 9.33118 8.94434C9.33118 7.47453 10.5302 6.27547 12 6.27547C13.4699 6.27547 14.6689 7.47453 14.6689 8.94434ZM17.2217 20.9736C16.835 21.3604 14.9397 21.9406 12 21.9406C9.09911 21.9406 7.20382 21.3604 6.77835 20.9736C7.12646 20.6255 8.71231 20.1226 11.1104 20.0453L11.5359 21.167C11.6133 21.3604 11.768 21.4764 12 21.4764C12.1934 21.4764 12.3868 21.3604 12.4642 21.167L12.851 20.0453C15.2878 20.1226 16.835 20.6255 17.2217 20.9736Z" fill="white"/>
</svg>
