<svg xmlns="http://www.w3.org/2000/svg" viewBox="0 0 86 48" width="86" height="48" preserveAspectRatio="xMidYMid meet" style="width: 100%; height: 100%; transform: translate3d(0px, 0px, 0px); content-visibility: visible;"><defs><clipPath id="__lottie_element_2"><rect width="86" height="48" x="0" y="0"></rect></clipPath></defs><g clip-path="url(#__lottie_element_2)"><g transform="matrix(1,0,0,1,0,0)" opacity="1" style="display: block;"><g opacity="1" transform="matrix(1,0,0,1,19.20599937438965,32.32600021362305)"><path stroke-linecap="round" stroke-linejoin="round" fill-opacity="0" stroke="rgb(0,0,0)" stroke-opacity="1" stroke-width="1.5" d=" M14.246999740600586,0 C14.246999740600586,7.868000030517578 7.867000102996826,14.246999740600586 -0.0010000000474974513,14.246999740600586 C-7.86899995803833,14.246999740600586 -14.246999740600586,7.868000030517578 -14.246999740600586,0 C-14.246999740600586,-7.86899995803833 -7.86899995803833,-14.246999740600586 -0.0010000000474974513,-14.246999740600586 C7.867000102996826,-14.246999740600586 14.246999740600586,-7.86899995803833 14.246999740600586,0z"></path></g><g opacity="1" transform="matrix(1,0,0,1,70.05000305175781,32.32600021362305)"><path stroke-linecap="round" stroke-linejoin="round" fill-opacity="0" stroke="rgb(0,0,0)" stroke-opacity="1" stroke-width="1.5" d=" M14.246000289916992,0 C14.246000289916992,7.868000030517578 7.868000030517578,14.246999740600586 0,14.246999740600586 C-7.86899995803833,14.246999740600586 -14.246000289916992,7.868000030517578 -14.246000289916992,0 C-14.246000289916992,-7.86899995803833 -7.86899995803833,-14.246999740600586 0,-14.246999740600586 C7.868000030517578,-14.246999740600586 14.246000289916992,-7.86899995803833 14.246000289916992,0z"></path></g><g opacity="1" transform="matrix(1,0,0,1,45.180999755859375,20.999000549316406)"><path stroke-linecap="round" stroke-linejoin="round" fill-opacity="0" stroke="rgb(0,0,0)" stroke-opacity="1" stroke-width="1.5" d=" M-1.2079999446868896,10.470999717712402 C-1.2079999446868896,10.470999717712402 -14.095999717712402,-9.36400032043457 -14.095999717712402,-9.36400032043457 C-14.095999717712402,-9.36400032043457 -25.97599983215332,10.470999717712402 -25.97599983215332,10.470999717712402 C-25.97599983215332,10.470999717712402 -1.2079999446868896,10.470999717712402 -1.2079999446868896,10.470999717712402z M-1.2079999446868896,10.470999717712402 C-1.2079999446868896,10.470999717712402 14.899999618530273,-5.638000011444092 14.899999618530273,-5.638000011444092 C14.899999618530273,-5.638000011444092 19.229999542236328,-10.470999717712402 25.97599983215332,-7.6519999504089355"></path></g><g opacity="1" transform="matrix(1,0,0,1,58.262001037597656,16.87700080871582)"><path stroke-linecap="round" stroke-linejoin="round" fill-opacity="0" stroke="rgb(0,0,0)" stroke-opacity="1" stroke-width="1.5" d=" M-11.788000106811523,-15.449000358581543 C-11.788000106811523,-15.449000358581543 -4.327000141143799,-15.449000358581543 -4.327000141143799,-15.449000358581543 C-3.0490000247955322,-15.449000358581543 -2.4079999923706055,-14.027999877929688 -1.9819999933242798,-12.392999649047852 C-1.5549999475479126,-10.760000228881836 5.692999839782715,10.347000122070312 5.692999839782715,10.347000122070312 C5.692999839782715,10.347000122070312 7.114999771118164,15.03600025177002 11.788000106811523,15.449000358581543"></path></g><g opacity="1" transform="matrix(1,0,0,1,15.260000228881836,17.665000915527344)"><path stroke-linecap="round" stroke-linejoin="round" fill-opacity="0" stroke="rgb(0,0,0)" stroke-opacity="1" stroke-width="1.5" d=" M13.557000160217285,-2.243000030517578 C8.26099967956543,-4.51200008392334 -7.23199987411499,-7.142000198364258 -13.557000160217285,7.14300012588501"></path></g><g opacity="1" transform="matrix(1,0,0,1,47.82600021362305,15.121000289916992)"><path stroke-linecap="round" stroke-linejoin="round" fill-opacity="0" stroke="rgb(0,0,0)" stroke-opacity="1" stroke-width="1.5" d=" M-9.473999977111816,7.4720001220703125 C-4.550000190734863,7.4720001220703125 6.373000144958496,4.2220001220703125 9.473999977111816,-7.4720001220703125"></path></g><g opacity="1" transform="matrix(1,0,0,1,31.930999755859375,9.364999771118164)"><path fill="rgb(253,215,1)" fill-opacity="1" d=" M6.421000003814697,-2.2690000534057617 C6.421000003814697,-2.2690000534057617 -0.7409999966621399,2.2690000534057617 -0.7409999966621399,2.2690000534057617 C-0.7409999966621399,2.2690000534057617 -6.421000003814697,0.6919999718666077 -6.421000003814697,0.6919999718666077 C-6.421000003814697,0.6919999718666077 -6.421000003814697,-2.2690000534057617 -6.421000003814697,-2.2690000534057617 C-6.421000003814697,-2.2690000534057617 6.421000003814697,-2.2690000534057617 6.421000003814697,-2.2690000534057617z"></path><path stroke-linecap="round" stroke-linejoin="round" fill-opacity="0" stroke="rgb(0,0,0)" stroke-opacity="1" stroke-width="1.5" d=" M6.421000003814697,-2.2690000534057617 C6.421000003814697,-2.2690000534057617 -0.7409999966621399,2.2690000534057617 -0.7409999966621399,2.2690000534057617 C-0.7409999966621399,2.2690000534057617 -6.421000003814697,0.6919999718666077 -6.421000003814697,0.6919999718666077 C-6.421000003814697,0.6919999718666077 -6.421000003814697,-2.2690000534057617 -6.421000003814697,-2.2690000534057617 C-6.421000003814697,-2.2690000534057617 6.421000003814697,-2.2690000534057617 6.421000003814697,-2.2690000534057617z"></path></g><g opacity="1" transform="matrix(1,0,0,1,0,0)"><path stroke-linecap="round" stroke-linejoin="round" fill-opacity="0" stroke="rgb(0,0,0)" stroke-opacity="1" stroke-width="1.5" d=" M59.51900100708008,5.775000095367432 C59.51900100708008,5.775000095367432 56.76900100708008,5.775000095367432 56.76900100708008,5.775000095367432"></path></g><g opacity="1" transform="matrix(1,0,0,1,64.46499633789062,7.008999824523926)"><path fill="rgb(64,180,227)" fill-opacity="1" d=" M-4.9120001792907715,-3.3310000896453857 C-4.760000228881836,-1.715999960899353 -4.60699987411499,-0.10199999809265137 -4.453999996185303,1.5140000581741333 C-4.327000141143799,2.74399995803833 -3.2320001125335693,3.6410000324249268 -2.006999969482422,3.5869998931884766 C-0.6690000295639038,3.5280001163482666 0.6700000166893005,3.5280001163482666 2.007999897003174,3.5869998931884766 C3.2330000400543213,3.6410000324249268 4.326000213623047,2.74399995803833 4.453999996185303,1.5140000581741333 C4.60699987411499,-0.10199999809265137 4.758999824523926,-1.715999960899353 4.9120001792907715,-3.3310000896453857 C1.6449999809265137,-3.640000104904175 -1.6440000534057617,-3.640000104904175 -4.9120001792907715,-3.3310000896453857z"></path><path stroke-linecap="round" stroke-linejoin="round" fill-opacity="0" stroke="rgb(0,0,0)" stroke-opacity="1" stroke-width="1.5" d=" M-4.9120001792907715,-3.3310000896453857 C-4.760000228881836,-1.715999960899353 -4.60699987411499,-0.10199999809265137 -4.453999996185303,1.5140000581741333 C-4.327000141143799,2.74399995803833 -3.2320001125335693,3.6410000324249268 -2.006999969482422,3.5869998931884766 C-0.6690000295639038,3.5280001163482666 0.6700000166893005,3.5280001163482666 2.007999897003174,3.5869998931884766 C3.2330000400543213,3.6410000324249268 4.326000213623047,2.74399995803833 4.453999996185303,1.5140000581741333 C4.60699987411499,-0.10199999809265137 4.758999824523926,-1.715999960899353 4.9120001792907715,-3.3310000896453857 C1.6449999809265137,-3.640000104904175 -1.6440000534057617,-3.640000104904175 -4.9120001792907715,-3.3310000896453857z"></path></g></g><g transform="matrix(-0.8411975502967834,0.5407279133796692,-0.5407279133796692,-0.8411975502967834,146.18711853027344,21.067367553710938)" opacity="1" style="display: block;"><g opacity="1" transform="matrix(1,0,0,1,77.85199737548828,27.775999069213867)"><path stroke-linecap="round" stroke-linejoin="round" fill-opacity="0" stroke="rgb(0,0,0)" stroke-opacity="1" stroke-width="1.5" d=" M-2.9170000553131104,-5.757999897003174 C1.0549999475479126,-3.2149999141693115 2.9170000553131104,1.3839999437332153 2.1689999103546143,5.757999897003174"></path></g></g><g transform="matrix(-0.8411975502967834,0.5407279133796692,-0.5407279133796692,-0.8411975502967834,52.936283111572266,47.203529357910156)" opacity="1" style="display: block;"><g opacity="1" transform="matrix(1,0,0,1,9.454999923706055,32.54999923706055)"><path stroke-linecap="round" stroke-linejoin="round" fill-opacity="0" stroke="rgb(0,0,0)" stroke-opacity="1" stroke-width="1.5" d=" M1.746000051498413,6.249000072479248 C-1.309999942779541,2.6549999713897705 -1.746000051498413,-2.2850000858306885 0.24799999594688416,-6.249000072479248"></path></g></g><g transform="matrix(-0.8411975502967834,0.5407279133796692,-0.5407279133796692,-0.8411975502967834,97.95065307617188,34.733585357666016)" opacity="1" style="display: block;"><g opacity="1" transform="matrix(1,0,0,1,44.11899948120117,36.625999450683594)"><path stroke-linecap="round" stroke-linejoin="round" fill-opacity="0" stroke="rgb(0,0,0)" stroke-opacity="1" stroke-width="1.5" d=" M0.2540000081062317,5.202000141143799 C0.2540000081062317,5.202000141143799 -0.2540000081062317,-5.202000141143799 -0.2540000081062317,-5.202000141143799"></path></g><g opacity="1" transform="matrix(1,0,0,1,44.090999603271484,42.10200119018555)"><path stroke-linecap="round" stroke-linejoin="round" fill-opacity="0" stroke="rgb(0,0,0)" stroke-opacity="1" stroke-width="1.5" d=" M3.052000045776367,-0.15299999713897705 C3.052000045776367,-0.15299999713897705 -3.052000045776367,0.15299999713897705 -3.052000045776367,0.15299999713897705"></path></g></g></g></svg>