<svg width="1024" height="1024" viewBox="0 0 1024 1024" fill="none" xmlns="http://www.w3.org/2000/svg">
<rect width="1024" height="1024" rx="500" fill="#FED801"/>
<path d="M693.645 588.714C681.999 583.464 672.616 586.715 664.914 599.236C646.851 628.654 622.576 652.498 587.607 666.554C533.935 688.105 477.491 686.803 424.167 669.866C383.415 655.797 350.989 638.434 324.746 612.729C277.802 566.739 268.176 516.306 295.743 462.874C299.84 454.913 300.718 448.239 291.634 442.232C282.218 436.001 272.961 436.453 265.2 443.001C262.217 445.506 259.597 448.597 257.779 451.914C231.658 499.032 232.805 547.592 265.536 596.961C289.078 632.493 323.324 658.635 363.162 678.851C436.25 715.961 511.541 729.948 588.471 710.415C644.056 696.294 683.983 665.758 704.06 617.101C709.44 604.014 704.86 593.76 693.645 588.714Z" fill="black"/>
<path d="M844.752 489.435C841.191 468.578 821.992 461.237 805.295 454.308C776.096 445.212 748.676 440.227 721.667 447.886C701.891 453.493 690.039 469.248 691.112 487.127C692.171 504.596 703.768 517.756 725.853 525.4C731.889 527.504 735.503 530.143 738.81 535.382C744.493 544.37 752.449 544.221 755.675 534.875C757.214 530.46 759.808 531.148 762.623 531.29C779.413 532.083 794.87 527.487 810.987 525.691C834.695 523.078 847.954 508.165 844.752 489.435ZM726.065 507.265C711.017 502.561 705.699 494.511 709.089 481.624C713.387 465.319 731.968 456.455 750.461 461.845C726.26 481.684 726.019 482.195 726.065 507.265ZM785.069 498.151C781.383 503.846 777.184 509.661 766.801 505.393C763.934 502.147 755.838 503.33 755.785 496.98C755.757 492.993 775.708 488.692 781.691 490.859C786.074 492.467 786.702 495.635 785.069 498.151Z" fill="black"/>
<path d="M316.203 388.365C319.4 394.728 328.663 397.605 330.886 391.588C334.468 381.852 342.503 384.545 349.745 383.552C364.819 381.501 380.097 380.035 394.83 376.972C410.994 373.597 420.531 363.852 421.983 348.666C423.452 333.431 413.663 322.849 399.663 314.777C393.342 311.14 386.231 308.688 383.066 307.287C352.015 297.546 324.657 292.745 297.836 300.767C278.217 306.645 266.764 322.431 268.09 340.398C269.331 357.254 280.984 370.434 301.985 377.754C308.33 379.966 313.123 382.205 316.203 388.365ZM358.944 343.522C363.433 345.276 363.362 348.282 361.808 350.933C358.221 357.069 353.544 361.905 343.531 357.928C340.706 354.562 332.358 355.927 332.815 349.377C333.091 345.333 353.264 341.299 358.944 343.522ZM285.377 336.873C287.533 320.119 304 310.816 330.512 313.888C308.74 324.86 300.102 339.706 303.919 361.275C289.544 356.535 283.889 348.368 285.377 336.873Z" fill="black"/>
</svg>
